<?xml version="1.0" encoding="UTF-8"?>
<!DOCTYPE svg PUBLIC "-//W3C//DTD SVG 1.1//EN" "http://www.w3.org/Graphics/SVG/1.1/DTD/svg11.dtd">
<!-- Creator: CorelDRAW -->
<svg xmlns="http://www.w3.org/2000/svg" xml:space="preserve" width="172.381mm" height="27.936mm" version="1.1" style="shape-rendering:geometricPrecision; text-rendering:geometricPrecision; image-rendering:optimizeQuality; fill-rule:evenodd; clip-rule:evenodd"
viewBox="0 0 17743.22 2875.45"
 xmlns:xlink="http://www.w3.org/1999/xlink"
 xmlns:xodm="http://www.corel.com/coreldraw/odm/2003">
 <defs>
  <style type="text/css">
   <![CDATA[
    .str0 {stroke:#373435;stroke-width:17.43;stroke-miterlimit:22.9256}
    .fil0 {fill:black}
    .fil1 {fill:black;fill-rule:nonzero}
   ]]>
  </style>
 </defs>
 <g id="Layer_x0020_1">
  <metadata id="CorelCorpID_0Corel-Layer"/>
  <g id="_2016334879104">
   <path class="fil0 str0" d="M3468.26 1182.3c12,19.55 32.41,60.98 44.38,76.43l29.77 50.24c2.47,4.11 2.42,6.12 4.42,9.7 2.17,3.87 3.24,3.45 5.76,6.8 4.91,6.55 2.58,12.86 11.45,15.22l0 28.23c-5.76,2.77 -8.99,5.61 -15.21,6.88 -2.85,0.58 -2.13,0.61 -5.14,0.56 -4.2,-0.07 -5.73,-1.6 -12.45,-1.12 -5.17,0.36 -6.51,1.86 -12.43,1.34 -9.19,-0.8 -14.83,-0.47 -23.84,-1.26 -22.53,-1.95 -59.59,-0.11 -83.11,-0.11 -16.93,0 -40.62,3.6 -46.03,-8.87 -2.54,-5.85 -1.7,-11.67 -5.93,-16.05 -11.48,-11.89 -6.66,-11.22 -12.4,-22.11 -1.97,-3.71 -3.84,-4.07 -6.21,-7.92l-3.59 -7.39c-0.16,-0.3 -0.41,-0.69 -0.6,-0.98l-15.29 -27.06c-6.68,-11.94 -9.81,-12.44 -15.05,-27.32 -2.33,-6.6 -1.9,-3.14 -5.63,-8.49 -2.57,-3.67 -2.59,-6.03 -4.59,-9.53 -2.96,-5.17 -8.42,-9.06 -11.5,-15.17 -1.78,-3.55 -2.34,-6.06 -4.45,-9.68 -2.84,-4.85 -3.38,-3.61 -5.7,-8.41 -1.88,-3.87 -1.89,-6.46 -4.06,-10.07 -2.2,-3.67 -2.87,-3.64 -5.34,-8.78l-2.12 -4.16c-5.67,-9.06 -25.92,-40.36 -28.8,-48.07 -5.41,-14.44 -18.3,-30.29 -25.41,-45.2l-35.54 -61.73c-7.08,-9.76 -7.99,-16.07 -20.88,-34.02 -5.79,-8.06 -14.48,-27.05 -20.22,-36.27l-10.26 -16.41c-2.69,-5.14 -1.28,-5.63 -4.25,-9.87 -2.76,-3.93 -3.91,-2.46 -6.26,-7.85 -2.33,-5.33 -0.38,-4.82 -3.97,-10.15l-18.69 -31.52c-2.19,-3.25 -0.09,0.63 -2.51,-3.77l-15.14 -25.64c-10.4,-15.66 -10.67,-21.43 -15.32,-27.04 -13.86,-16.76 -8.88,-19.7 -13.86,-26.94 -2.65,-3.84 -3.62,-2.48 -6.07,-8.05 -1.52,-3.47 -0.23,-2.36 -2.08,-5.75 -1.5,-2.74 -0.87,-1.39 -2.85,-3.43 -8.13,-8.4 -31.06,-57.31 -41.29,-70.11 -3.03,-3.8 -2.89,-4.11 -5.39,-8.73 -2.3,-4.26 -3.12,-4.71 -5.2,-8.92 -3.58,-7.28 -7.63,-10.72 -9.52,-18.72 -2.49,-10.6 -3.83,-5.61 -9.98,-16.68l-26.22 -44.38c-2.27,-3.52 -3.19,-5.58 -5,-9.11 -2.59,-5.08 -6.61,-11.34 -10.14,-16.53 -3.09,-4.55 -3.41,-3.24 -5.38,-8.74 -5.28,-14.6 -5.82,-9.28 -9.37,-18.88l-2.86 -6.55c-7.67,-11.25 -5.95,-13.54 -9.45,-17.23 -5.59,-5.9 -8.73,-13.03 -13.06,-19.89 -2.41,-3.82 -3.93,-4.13 -6.13,-7.98l-11.54 -21.42c-0.17,-0.28 -0.45,-0.65 -0.65,-0.92 -7.04,-9.96 -14.22,-27.05 -18.07,-32.12 -3.18,-4.2 -2.35,-3.1 -4.35,-8.2 -2.72,-6.92 -6.7,-11.29 -10.78,-17.46l-20.41 -36.08c-3.52,-8.47 -3.91,-10.63 -11.17,-15.49 -4.26,2.85 -6.84,6.61 -9.34,11.05 -1.7,3.04 -1.75,3.86 -4.19,6.79 -2.16,2.6 -1.71,0.45 -4.22,5.2 -3.18,6.02 -1.66,7.88 -6.21,14.18l-37.07 64.92c-2.64,6.71 -4.68,4.96 -7.83,12.56 -2.33,5.61 -3.87,8.51 -6.9,13.49 -2.78,4.56 -6.65,7.01 -8.78,11.62l-21.95 39.24c-5.29,7.3 -9.18,17.44 -13.81,25.4l-7.28 13.12c-4,7.66 -5.02,2.88 -8.23,12.16 -2.67,7.71 -1.85,7.84 -6.7,13.69 -10.46,12.62 -6.22,11.91 -11.73,19.65l-10.96 18.85c-1.7,3.09 -2.03,4.44 -4.08,6.91l-4.25 5.17c-3.15,6.8 -0.39,6.92 -5.95,14.44 -5.81,7.85 -9.98,19.52 -14.78,26 -5.4,7.3 -4.22,2.01 -7.93,12.48 -2.87,8.12 -9.96,14.2 -15.33,25.46 -3.14,6.61 -5.27,6.75 -7.78,12.62l-6.77 13.62c-1.81,2.79 -1.52,2.8 -3.77,5.64 -2.78,3.53 -1.98,1.32 -3.95,5.48 -1.38,2.91 -1.32,5.14 -2.9,8.07 -3.1,5.75 -2.46,2.65 -4.44,4.98l-18.45 33.33c-7.19,15.33 -19.7,28.77 -25.65,44.95 -3.71,10.07 -11.22,15.94 -15.41,25.37l-7.31 13.09c-3.41,5.62 -2.69,7.15 -7.35,13.04 -3.83,4.84 -3.01,8.24 -7.04,13.36 -2.84,3.61 -2.1,1.3 -4.71,6.27l-7.25 13.14c-1.79,2.57 -2.55,2.66 -4.46,4.96 -4.82,5.87 -2.25,7.76 -6.41,13.99 -1.82,2.73 -1.78,1.59 -3.94,5.47l-7.21 13.2c-1.64,2.97 -1.27,3.55 -2.79,6.62 -2.43,4.88 -2.08,2.76 -4.67,6.31l-41.47 69.91c-3.32,5.2 -2.03,8.13 -6.55,13.85 -3.19,4.05 -2.1,0.89 -4.46,6.54 -0.89,2.13 -1.18,4.32 -2.46,6.95l-34.1 58.46c-1.94,2.9 -2.26,2.64 -3.98,5.43 -6.49,10.6 -5.2,15.52 -17.29,21.92 0,16.93 -5.89,15.71 -15.88,35.89l-32.99 58c-2.56,5.54 -2.34,7.3 -6.21,12.62 -3,4.13 -6.86,6.93 -9.21,11.19l-6.92 13.47c-4.66,5.73 -3.24,7.87 -6.47,13.93l-12.18 19.2c-1.36,2.92 -1.35,4.13 -2.72,6.7 -3.01,5.62 -5.73,6.34 -12.58,7.82 -10.25,2.21 -131.35,-0.83 -158.47,-0.02 -13.46,0.4 -34.37,5.23 -34.36,-12.62 0,-5.66 5.74,-16.11 9.08,-20.51l59.38 -102.2c8.84,-12.18 13.82,-25.71 23.32,-37.87 5.96,-7.62 9.33,-18.41 13.71,-27.08 4.23,-8.34 10.9,-15.82 14.75,-24.47 3.31,-7.45 5.27,-6.99 8.04,-12.37l21.9 -39.28c3.6,-6.36 4.25,-6.65 8.56,-11.83l50.7 -90.5c3.88,-5.19 4.38,-7.27 7.43,-12.96 3.09,-5.76 5.57,-6.48 8.67,-11.73 2.85,-4.84 2.64,-8.41 5.64,-13.19 2.32,-3.7 2.17,-1.87 4.47,-6.52l15.43 -25.36c3.36,-5.73 2.75,-9.12 9.73,-20.08l11.17 -20.21c13.87,-22.36 8.04,-20.99 21.3,-27.35 0,-7.63 1.16,-10.89 5.58,-16.38 6.26,-7.79 9.18,-18.7 15.26,-27.1l19.09 -34.24c1.94,-3.63 1.04,-2.54 3.33,-6.07 4.36,-6.71 4.07,-4.13 7.6,-12.8 4.25,-10.44 12.03,-16.87 15.97,-26.39 2.65,-6.38 6.25,-5.83 8.1,-12.29l6.86 -15.11c8,-10.62 10,-21.17 15.07,-27.29 10.57,-12.76 18.06,-31.87 32.04,-51.12 3.74,-5.14 2.76,-8.68 6.51,-13.9 2.94,-4.11 1.96,-0.65 4.41,-6.57 1.41,-3.42 1.26,-5.51 3.89,-8.67l7.21 -11.62c4.29,-9.25 11.71,-17.52 15.58,-26.77 3.68,-8.83 10.63,-17.48 15.04,-25.75 3.51,-6.59 4.46,-3.39 7.33,-9.93 4.45,-10.12 6.74,-10.78 8.81,-16.29 1.52,-4.06 0.56,-3.86 3.36,-7.63 6.08,-8.17 8.93,-16.91 14.73,-26.05l11.47 -19.92c1.88,-3.45 5.62,-9.26 7.89,-12.5l18.16 -32.05c0.16,-0.31 0.37,-0.72 0.52,-1.04 0.16,-0.32 0.34,-0.74 0.49,-1.07 1.73,-3.54 0.46,-2.74 3.52,-5.9 4.64,-4.79 2.3,0.79 5.53,-5.46 3.26,-6.3 0.92,-7.34 6.71,-15.25l23.11 -39.65c2.48,-3.72 1.32,-1.43 3.53,-5.89 2.1,-4.21 1.3,-2.93 4.09,-6.89 2.25,-3.19 1.91,-2.49 3.39,-6.03l14.47 -27.88c6.75,-9.24 7.74,-8.51 12.18,-19.2 1.99,-4.78 0.73,-2.03 3.72,-5.7 5.48,-6.74 3.49,-7.39 7.02,-14.95 5.33,-11.39 9.78,-12.88 14.77,-26.02 2.78,-7.32 9.01,-11.93 12.63,-18.74l19.24 -34.11c4.3,-6.7 3.95,-2.92 7.82,-12.57 3.16,-7.88 4.99,-7.28 8.25,-13.72 1.57,-3.12 1.88,-4.82 3.39,-7.59 5.86,-10.8 11.18,-22.05 18.65,-31.56 3.58,-4.56 5.31,-12.87 15.66,-26.71 3.29,-4.41 3.66,-8.69 7.22,-13.18 3.36,-4.24 1.78,-1.21 4.43,-6.56l10.87 -20.5c1.94,-3.45 2.62,-3.01 4.52,-6.46 3.62,-6.59 4.94,-14.9 15.59,-14.02 15.3,1.28 23.12,32.65 30.05,43.89l26.93 46.81c13.45,20.75 30.61,55.13 37.99,65.55 4.71,6.66 6.22,14.13 11.5,19.89 3.4,3.72 2.33,1.26 4.51,6.46l7.11 13.3c5.98,7.97 9.86,17.29 14.98,25.81 3.32,5.53 4.78,8.13 7.78,14.17 3.53,7.13 5.56,7.13 8.34,12.06l14.7 27.66c5.17,11.27 8.88,12.86 14.95,27.41 0.13,0.31 18.76,27.94 23.7,39.05 4.71,10.61 18.37,28.57 23.53,37.66 2.42,4.26 4,9.99 6.82,15.14 2.84,5.2 5.45,6.99 8.31,12.08 3.07,5.49 2.96,8.54 6.65,13.75 13.08,18.49 26.2,46.97 39.15,65.97 6.11,8.97 9.12,17.59 15.09,27.26 15.74,25.45 28.84,53.1 45.79,78.15l29.62 53.52c2.75,5.51 5.78,7.89 9,12.97l26.54 47.19c7.16,9.49 39.6,71.8 49.57,85.37l30.24 52.9c2.82,5.67 5.11,8.39 6.26,15.7 2.15,0.06 1.6,-5.68 7.61,9.65l47.65 81.02c3.13,4.93 3.56,8.04 6.02,12.79l13.51 24.15c2.53,4.42 4.36,5.73 7.13,10.12 2.73,4.31 3.94,7.68 6.44,12.38l17.91 29.21c2.07,5.53 1.68,0.63 0.42,5.82 4.32,2.72 1.3,-0.34 5.08,4.37l62.29 107.09zm-118.4 347.41c2.89,-7.64 13.39,-17.21 21.16,-18.06 15.87,-1.73 141.15,0.17 169.55,-0.02 14.03,-0.09 10.8,1.02 18.75,6.34 -2.65,5.53 -0.83,10.75 -3.22,17.17 -2.66,7.11 -25.19,38.13 -30.77,49.25l-22.09 37.52c-3.81,5.28 -3.58,8.53 -6.73,13.67l-37.29 63.13c-2.66,4.11 -5.25,8.29 -7.59,12.8 -5.68,10.97 -3.52,9.36 -9.88,8.88 0.87,5.9 1.07,6.51 -2.23,11.95l-25.61 44.98c-3.77,6.33 -6.81,11.44 -10.39,17.86 -3.71,6.65 -7.72,11.91 -10.28,17.96l-26.25 44.35c-2.42,5.38 -1.43,4.53 -4.69,9.43l-35.81 63.03c-2.45,5.47 -2.95,4.36 -5.57,8.54l-16.03 26.33c-3.68,5.45 -1.03,4.69 -10.05,18.2 -3.15,4.7 -3.28,8.71 -9.56,18.68l-9.93 18.31c-3.13,6.83 -8.06,11.92 -11.16,17.07 -1.89,3.14 -2.61,6.32 -4.57,9.55l-15.94 26.42c-2.42,3.64 -4.19,5.15 -5.71,8.41 -1.94,4.16 -1.49,5.93 -4.06,10.06l-9.84 18.4c-4.94,10.29 -4.44,-0.3 -11.05,17.19 -2.35,6.19 -9.91,15.16 -15.58,26.78 -1.84,3.77 -2.82,6.03 -5,9.11 -2.82,4 -2.98,3.26 -5.4,8.72 -2.31,5.21 -1.48,4.57 -4.88,9.24l-62.1 107.27c-3.54,6.47 -4.7,6.51 -7.85,7.89 1.08,4.44 1.69,2.97 -1.65,7.75 -4.82,6.91 -1.09,2.95 -4.63,3.36 -0.44,7.31 -2.19,9.74 -5.37,14.9 -2.94,4.81 -3.95,7.22 -6.67,12.15 -4.66,8.47 -10.32,14.59 -14.65,23.02l-26.74 47c-9.16,15.94 -20.08,30.84 -27.85,47.44l-33.91 58.66c-3.86,5.76 -3.16,6.87 -6.09,12.73 -2.97,5.96 -4.58,5.38 -8.07,10.76 -3.42,5.26 -3,8.4 -5.64,13.2 -1.79,3.25 -5.42,7.28 -7.72,11.11 -2.54,4.27 -4.26,7.15 -6.87,11.96 -2.54,4.67 -5.24,7.61 -7.05,11.78 -5.7,13.11 -7.49,12.86 -12.84,23.24l-13.59 24.08c-6.74,12.67 -12.86,19.33 -14.46,23.19 -4.8,11.58 -11.84,26.34 -18.74,36.16 -2.95,4.2 -5.05,5.93 -7.42,11.4 -3.83,8.85 -3.11,5.58 -7.12,11.71l-13.02 24.63c-2.85,4.7 -4.68,6.9 -7.21,11.62l-17.72 29.34c-4.13,6.28 -4.76,11.95 -8.93,17.75 -5.07,7.05 -8.68,17.44 -13.22,24.44 -4.02,6.21 -3.75,2.75 -7.41,11.41l-14.18 23.49c-7.05,7.28 -18.83,4.78 -21.54,-4.58 -3.86,-13.23 -0.55,-3.48 -8.08,-10.75l-54.35 -94.7c-3.28,-4.51 -3.02,-8 -5.63,-13.2 -2.84,-5.64 -4.52,-5.56 -8.08,-10.75 -3.33,-4.86 -3.17,-6.79 -5.88,-11.37 -9.27,-15.7 -34.71,-56.79 -40.7,-70.7 -2.83,-6.57 -4.13,-5.65 -7.15,-11.67 -3.27,-6.51 -1.56,-6.64 -6.37,-12.45 -5.06,-6.14 -8.19,-13.75 -12.52,-20.43l-28.88 -49.56c-7.99,-11.39 -20.03,-38.21 -23.26,-42.62 -10.99,-15.03 -10.13,-16.79 -17.88,-27.63 -5.07,-7.09 -8.67,-17.54 -12.77,-24.89l-14.82 -22.82c-1.4,-2.1 -2.1,-3.36 -3.68,-5.73 -3.1,-4.65 -0.73,0.14 -3.37,-6.04 -0.99,-2.3 -1.74,-4.82 -2.71,-6.71 -1.86,-3.64 -1.47,-2.16 -3.77,-5.64 -6.67,-10.13 -2.06,-8.38 -13.64,-22.45 -5.16,-6.25 -2.94,-6.07 -6.11,-12.71 -2.36,-4.93 -4.73,-4.94 -7.61,-11.22 -2.06,-4.5 -3.9,-9.16 -5.96,-12.87 -5.82,-10.51 -8.5,-10.74 -12.83,-23.26 -2.14,-6.2 -7.56,-11.1 -10.93,-17.3 -1.22,-2.25 -2.04,-4.02 -3.19,-6.23 -2.71,-5.23 -4.5,-5.83 -6.77,-10.48l-3.82 -10.31c-2.98,-5.02 -7.56,-7.31 -10.77,-12.76 -3.09,-5.25 -2.01,-8.85 -5.13,-13.7 -3.44,-5.33 -3.81,-3.42 -7.38,-11.45 -3.74,-8.4 -9.92,-14.46 -14.29,-23.37 -7.43,-15.14 -8.13,-12.74 -13.31,-22.78 -2.31,-4.46 -3.82,-8.98 -5.78,-13.04 -5.83,-12.03 -28.34,-43.01 -32.03,-52.68l-30.25 -52.91c-8.83,-13.61 -7.16,-15.06 -17.3,-29.76l-23.77 -40.56c-4.02,-5.07 -3.06,-7.06 -6.19,-12.64l-27.63 -46.11c-3.56,-8.15 0.08,-5.07 -6.22,-12.61l-20.72 -34.18c-2.5,-5.15 -3.98,-7.01 -6.61,-12.22 -4.84,-9.61 -9.91,-12.55 -13.89,-23.78 -2,-5.63 -3.55,-6.68 -7.32,-11.51l-12.87 -24.79c-2.54,-7.12 -6,-11.12 -9.65,-17.01l-17.76 -29.3c-5.55,-10.46 -9.55,-11.63 -13.71,-23.95 -2.54,-7.57 -6.52,-10.83 -11,-17.23 -4,-5.7 -4.41,-12.39 -8.84,-17.84 -5.27,-6.43 -3.44,-9.59 -8.12,-15.41 -0.29,-0.35 -1.22,-1.27 -1.53,-1.61 -5.14,-5.77 -7.81,-11.64 -11.01,-18.8 -2.38,-5.32 -4.69,-6.55 -7.57,-11.26 -4.95,-8.15 -7.33,-16.38 -12.89,-24.76l-24.2 -40.12c-5.85,-8.11 -2.38,-12.32 -9.56,-18.68 -4.94,-4.37 -10.92,-16.87 -14.31,-23.34l-13.93 -23.73c-6.62,-16.85 0.73,-29.88 21.83,-29.8l149.11 0.05c25.84,-0.17 22.29,5.34 31.59,20.18l8.44 15.09c1.51,2.85 2.16,2.96 3.8,5.62l23.26 41.06c10.09,13.04 14.16,28.1 23.92,40.4l4.28 6.71c1.56,4.24 1.64,6.4 4.52,9.59 8.16,9.05 23.31,37.57 28.82,49.62 2.5,5.49 3.81,5.33 6.78,10.48l13.97 23.67c5.67,7.07 8.16,15.06 12.68,23.41 3.3,6.08 4.63,5.29 7.93,10.91 2.71,4.63 3.55,9.14 5.77,13.04 3.09,5.42 4.59,3.93 7.61,11.23 3.17,7.67 6.98,10.88 10,18.23 1.45,3.52 0.72,3.82 2.29,7.13 2.52,5.33 6.01,7.18 8.6,11.79l19.65 33.69c2.87,3.17 1.69,1.56 4.09,5.33l9.33 18.92c5.01,8.49 10.13,13.02 13.69,23.96 2.13,6.53 4.09,6.64 7.17,11.65 3.29,5.34 2.14,7.01 6.33,12.5 7.77,10.15 7.43,11.15 13.4,22.68 2.9,5.58 4.72,4.35 7.41,11.43l6.61 12.22c1.69,2.61 1.55,3.49 3.12,6.29 1.74,3.1 1.83,2.4 3.89,5.53l13.67 23.98c5,7.02 10.45,15.31 12.76,23.32 2.57,8.87 6.93,10.2 10.69,17.55l105.41 181.69c4.03,8.58 3.76,1.78 7.43,11.39 1.01,2.65 1.07,3.91 2.73,6.68 5.53,9.2 7.46,16.91 9.16,19.08l14.82 22.82c2,4.2 4.43,6.96 7.05,11.8l14.19 21.88c3.14,6.55 0.93,7.34 5.58,13.25 2.19,2.78 2.12,2.05 4.21,5.2 1.65,2.49 1.72,2.95 3.71,5.7 6.08,8.41 2.06,4.97 5.18,13.65 2.38,6.59 4.94,4.55 7.82,11.01 4.03,9.06 10.78,13.79 14.56,23.09 5.04,12.38 8.59,12.71 13.32,22.77 2.9,6.17 2.08,7.98 5.64,13.19l20.6 34.32c2.73,4.72 2.81,7.65 6.6,12.23 13.3,16.08 -2.95,19.29 16.79,19.29 4.07,-8.46 7.19,-16.63 13,-24.65 4.83,-6.67 7.72,-14.97 12.18,-22.34 1.42,-2.37 3.12,-5.28 4.8,-7.75 4.29,-6.35 0.87,-3.97 6.1,-4.88 -1.28,-7.08 -0.65,-3.7 2.79,-8.2l5.13 -10.56c1.72,-3.05 1.76,-2.12 3.46,-4.37 3.53,-4.68 2.58,-8 6.1,-12.72l5.51 -8.62c3.12,-8.52 9.02,-16.17 13.99,-23.66 2.25,-3.4 2.92,-5.66 4.9,-9.23l24.12 -41.77c2.83,-4.56 5.33,-11.51 9.28,-15.82 4.93,-5.38 2.87,1.02 5.42,-8.69 2.23,-8.48 5.13,-9.98 9.06,-17.62l9.78 -16.89c2.53,-3.82 2.58,-2.83 5.08,-7.46l14.64 -24.59c1.6,-3.5 1.53,-5.11 3.8,-8.75 2.49,-3.99 3.32,-3.54 5.62,-8.5 7.94,-17.16 7.59,-12.51 15.03,-24.19l9.17 -15.93c4.73,-7.18 5.37,-15.67 13.8,-26.99 5.92,-7.92 7.74,-17.2 14.27,-24.96l22.09 -37.53c3.11,-6.26 5.16,-4.98 7.81,-11.01l13.24 -25.98c7.39,-10.91 9.67,-18.71 14.06,-25.17l24.37 -41.52c2.64,-5.29 2.56,-3.46 5.28,-7.27l18.67 -33.09c6.26,-15.4 18.8,-27.55 23.96,-41.94 2.39,-6.65 1.44,-3.79 4.79,-7.76l9.72 -16.96c1.88,-3.11 2.65,-6.3 4.59,-9.52 1.9,-3.17 2.68,-3.52 5.14,-7.41 2.77,-4.36 2.82,-3.77 5.31,-7.24 6.16,-8.57 13.51,-28.37 23.59,-42.31 4.73,-6.56 4.6,-10.63 9.38,-17.28l10.04 -15.08c2.17,-4.03 0.86,-6 3.6,-10.52 2.08,-3.43 3.36,-3.14 5.57,-6.98l4.77 -9.35c1.49,-2.36 3.28,-5.58 4.79,-7.77 2.15,-3.14 1.6,-1.83 3.67,-4.17 3.44,-3.85 3.28,-7.74 6.34,-12.49l19.3 -32.47c5.42,-6.86 9.32,-19.09 14.32,-26.47 2.88,-4.26 2.46,-2.26 4.75,-7.8 2.84,-6.91 6.64,-8.54 9.45,-15.66 5.64,-14.31 12.1,-17.26 15.32,-25.48 1.85,-4.73 1.16,-4.76 3.86,-8.69l5.46 -8.67c2.31,-5.13 1.42,-3.59 4.4,-8.16l5.95 -9.73c5.17,-6.81 3.38,-10.06 7.33,-16.21 2,-3.12 2.76,-2.78 5.46,-7.09 4.91,-7.86 9.11,-18.75 14.83,-25.96 4.94,-6.24 1.29,-0.57 4.23,-8.33zm-1777.4 -535.17l0.03 0.05c3.98,5.74 -2.09,-2.17 -0.03,-0.05zm-520.21 -982.68l1341.39 -0.01c32.5,0 66.6,1.02 98.9,0.05 8.52,-0.25 12.98,-1.68 23.47,-1.63 9.7,0.04 16.5,0.1 24.01,1.19 13.5,1.95 13.59,-3.75 21.18,-2.57l16 7.67c0,20.62 -2.24,9.16 -6.98,19.68 -3.72,8.27 2.96,0.93 -7.61,17.5 -7.49,11.76 -1.75,-0.17 -10.06,16.61 -2.53,5.12 -2.91,3.4 -5.35,7.21 -1.99,3.13 -1.87,5.39 -3.76,8.79 -2.69,4.86 -2.84,2.4 -5.69,8.43l-13.41 24.24c-3.14,4.23 -8.79,11.26 -10.83,15.84 -1.81,4.05 -1.68,5.28 -3.82,8.74l-14.06 25.16c-14.34,26.48 -19.86,21.94 -54.92,21.94l-1109.3 -0.08c-23.87,-0.36 -7.24,10.06 -3.96,18.27 7.48,18.81 8.11,9.88 14.16,23.49 1.64,3.67 2.52,6.34 4.67,9.44 14.79,21.24 5.02,7.63 13.21,24.45 1.71,3.51 3.68,4.93 5.88,8.24 2.34,3.54 2.33,4.98 4.08,8.48l14.04 23.61c8.72,18.56 10.78,9.5 10.78,26.88 8.9,0.74 9.73,4.5 12.53,11l16.97 30.1c11.72,18.06 6.76,13.05 11.55,22.97 2,4.15 1.97,2.7 4.67,6.3 2.08,2.78 2.87,5.02 4.57,7.99 1.68,2.91 2.26,3.12 4.11,6.88l8.65 14.89c3.68,6.35 1.71,8.29 7.14,14.81l26.78 43.82c2.01,4.19 1.19,3.36 3.87,7.11 6.96,9.8 3.85,8.82 8.6,14.92 8.24,10.59 9.46,18.92 14.13,26.66 2.67,4.42 0.22,0.33 2.84,3.43 8.36,9.83 0.98,11.64 13.51,19.81l-1.86 6.2c5.86,-0.38 2.9,-2.04 14.32,17.07l6.19 12.63c0.22,0.25 0.57,0.56 0.77,0.8l6.79 12.02c11.16,18.51 23.53,37.69 31.95,57.49 2.76,6.49 9.53,11.63 12.93,18.45 5.11,10.23 12.74,20.3 17.55,31.1l7.5 12.88c3.33,5.34 2.08,6.49 6.73,12.1 6.55,7.88 8.73,16.89 14.26,24.97 3.66,5.35 5.29,12.6 8.9,17.77 8.68,12.41 3.88,2.34 13.29,21.21 1.06,2.12 0.27,0.75 1.77,2.94 8.9,13.06 8.73,16.18 20.51,32.82 4.69,6.63 -0.91,4.46 9.98,19.82l12.63 21.89c0.2,0.26 0.52,0.58 0.73,0.84 4.28,5.69 2.18,7.35 12.93,21.58 4.4,5.83 3.63,5.39 6.1,12.72l22.29 37.32c3.06,4.94 3.15,7.79 6.28,12.55 3.12,4.76 5.29,6.61 8.25,12.14 5.55,10.39 3.4,10.75 10.74,20.65l4.44 9.68c1.69,3.08 -0.3,0.13 2,2.71 8.86,9.9 9.29,15.88 14.99,24.24l65.46 113.39c1.76,2.9 1.64,1.73 3.71,5.7l7.01 11.83c4.25,5.69 3.79,8.34 6.78,13.61 3.12,5.5 6.32,4.73 6.33,14.17 0,7.79 -13.8,32.55 -19.03,40.77l-7.19 11.63c-3.2,8.12 -3.99,4.97 -7.77,12.62 -2.82,5.74 0.32,1.13 -3.43,5.98l-17.35 32.87c-2.78,4.09 -5.75,7.38 -8.46,11.92 -3.13,5.23 -2.7,7.34 -6.35,12.48 -15.4,21.67 -13.35,39.65 -38.8,39.65l-12.87 -21.65c-2.29,-4.46 -3.75,-4.9 -6.4,-10.86l-12.53 -21.99c-12.95,-15.95 -9.04,-15.64 -19.9,-31.88 -8.86,-13.27 -6.66,-16.32 -11.09,-23.44l-32.26 -54.02c-3.83,-9.47 -18.77,-33.46 -24.27,-43.2 -4.11,-7.27 -10.06,-13.67 -13.58,-20.94 -2.78,-5.7 -1.27,-7.3 -4.89,-12.36l-20.05 -31.73c-2.96,-5.3 -2.11,-6.34 -5.75,-11.5 -8.59,-12.13 -14.43,-26.2 -22.9,-38.29l-26.86 -48.44c-1.14,-1.34 -1.85,-2.13 -2.25,-2.54l-30.25 -51.24c-6.81,-9.49 -13.09,-24.47 -15.78,-28.15 -4.07,-5.58 -5.79,-14.24 -10.39,-19.42 -5.12,-5.79 -8.89,-11.03 -11.72,-18.08l-9.45 -17.23c-4.72,-9.6 -11.59,-15.43 -15.03,-25.75 -2.93,-8.79 -9.44,-13.26 -13.58,-20.94 -2.29,-4.23 -2.06,-9.13 -4.33,-12.93 -3.27,-5.42 -3.78,-1.75 -7.07,-10.19 -3.31,-8.51 -1.42,-4.33 -6.77,-10.48l-22.14 -37.48c-0.92,-2.1 -1.25,-3.64 -2.15,-5.7 -2,-4.6 -4.37,-6.26 -6.9,-10.35l-28.48 -54.68c-0.63,-6.78 -1.07,-1.78 -6.11,-6.43 -6.04,-5.59 -13.99,-23.89 -19.41,-32.36l-11.51 -19.88c-1.6,-2.72 -2.12,-4.43 -3.5,-7.48l-22.58 -38.6c-1.62,-2.92 -1.84,-5.22 -2.98,-8l-12.25 -19.13c-2.84,-4.86 -6.26,-8.4 -8.29,-12.1l-22.51 -40.25c-6.14,-7.56 -12,-18.27 -13.65,-28.7 -1.05,-0.02 -2.6,1.54 -5.83,-5.07 -1.56,-3.2 -1.67,-5.02 -3.12,-7.96 -3.42,-6.84 -10.07,-7.48 -6.75,-15.21 -5.73,-2.34 -3.39,0.24 -6.94,-5.72l-10.17 -19.53c-3.24,-5.6 -1.51,0.75 -7.77,-12.63 -3.04,-6.52 -4.89,-5.53 -8.07,-12.32 -8.84,-18.95 -12.16,-19.52 -15.22,-25.57 -3.77,-7.44 -7.97,-20.33 -13.44,-27.35 -14.2,-18.24 -10.37,-17.67 -15.68,-25.11l-11.87 -19.52c-1,-2.1 -1.46,-4.87 -2.48,-6.93 -3.41,-6.87 -4.17,-2.37 -7.78,-12.62 -3.09,-8.76 -3.41,-5.62 -7.78,-12.61l-7.28 -13.12c-3.42,-9.4 -2.93,-4.95 -7.25,-11.58 -3.44,-5.29 -2.33,-8.12 -6.41,-13.98 -10.51,-15.04 -2.55,-0.68 -12.15,-19.23 -3.55,-6.88 -0.39,-0.8 -4.14,-5.28 -3.86,-4.62 -7.33,-17.36 -14.49,-26.3 -4.99,-6.21 -4.86,-4.63 -7.21,-13.19 -3.36,-12.26 -0.79,0.07 -9.95,-16.72 -0.19,-0.33 -1.09,-1.88 -1.71,-3.01 -4.72,-8.74 -1.52,-6.27 -7.22,-13.18 -7.1,-8.63 -2.84,-7.54 -6.48,-13.91 -1.11,-1.95 -0.49,-0.83 -2.08,-2.62l-2.36 -2.36c-3.03,-3.38 -6.24,-8.41 -7.82,-12.58 -4.09,-10.8 -1.72,-5.05 -7.58,-12.81 -2.56,-3.39 -4.43,-9.04 -7.05,-13.34l-14.65 -26.15c-2.93,-5.87 -3.79,-6.24 -5.46,-13.37 18.29,-12.25 12.21,-6.21 40.79,-6.27zm833.39 1639.15c21.09,34.89 9.2,27.6 -4.93,55.32 -1.53,2.98 -1.79,4.97 -3.2,7.77 -0.95,1.88 -0.38,1.03 -1.81,2.9l-1.5 1.64c-6.73,7.66 -3.63,11.27 -16.16,26.21l-3.56 7.42c-2.33,7.41 -6.94,12.14 -10.47,19.33l-12.38 19c-1.88,3.77 -0.72,3.15 -1.96,7.45 -2.07,7.19 -4.49,7.31 -8,12.4 -5.89,8.53 -9.18,18.08 -15.19,25.59 -4.18,5.21 -2.36,7.86 -6.49,13.91 -2.53,3.68 -5.73,6.35 -8.38,10.45 -3.41,5.27 -2.94,8.38 -6.67,13.72l-11.48 19.91c-1.38,2.48 -1.74,3.63 -3.36,6.06l-7.22 13.18c-3.4,6.04 -4.83,3.56 -7.98,12.41 -1.41,3.98 -0.78,3.86 -3.43,7.57 -6.77,9.5 -11.9,22.76 -18.55,31.65l-15.66 25.15c-3.16,4.89 -2.37,8.08 -6.52,13.87l-44.77 76.02c-0.17,0.3 -0.38,0.72 -0.56,1.02 -3.67,6.06 -5.4,4.61 -8.22,12.18l-7.12 13.26c-1.73,3.11 -1.6,4.5 -3.33,7.65 -1.69,3.05 -1.96,2.39 -3.77,5.65l-29.36 52.23c-4.73,9.46 -19.98,29.52 -23.06,38.13 -2.89,8.09 -4.12,6.09 -7.52,12.87l-43.65 77.16c-1.7,3.5 -2.22,4.75 -3.76,7.23 -3.39,5.42 -0.86,2.14 -4.49,4.93 -4.36,3.36 -2.52,-1.53 -5.37,5.61 -0.83,2.09 -0.6,4.34 -1.75,7.66 -1.78,5.13 -1.28,2.18 -4.48,6.51 -4.27,5.78 -6.65,13.06 -10.2,19.61l-29.94 51.64c-6.2,8.71 -7.48,17.82 -15.18,25.62 -1.95,1.97 -1.38,0.76 -2.91,3.36 -1.47,2.52 -0.4,0.69 -1.38,3.32 -3,8.15 -5.78,7.69 -8.24,12.15 -0.99,1.79 -1.33,5.1 -1.96,7.47 -3.45,13.12 -11.08,12.92 -15.27,25.51 -3.64,10.9 -10.02,16.02 -14.78,26.01l-19.13 32.64c-6.12,8.33 -7.56,14.97 -10.9,18.91 -3.76,4.43 -1.51,-1.4 -4.47,6.51l-24.89 45.72c-8.3,16.5 -9.19,11.72 -21.53,39.65 -3.75,8.45 -6.74,6.26 -9.48,10.92 -1.16,1.99 -1.51,5.75 -2.71,8.28 -2.45,5.2 -3.95,2.96 -6.48,7.75 -9.27,17.45 17.37,8.78 27.27,8.49 7.53,-0.23 18,2.37 29.23,0.82 26.16,-3.59 93.63,-1.14 124.37,-1.14 21.83,0 38.69,-1.56 61.19,-1.56l469.09 -1.57c12.31,0.03 19.16,-1.61 29.75,-1.62l313.4 2.05c23.94,3.28 44.97,-1.32 74.77,3.68 5.26,0.87 9.68,0.58 15.13,0.55 24.69,-0.12 22.27,5.56 32.05,21.3l17.37 32.83c2.21,4.97 3.23,4.51 7.01,8.68 11.52,12.75 1.08,10.92 13.16,24.49l18.14 30.5c2.46,4.8 1.7,5.66 5.18,10.51 5.85,8.14 7.36,9.55 11.68,19.7 3.52,8.25 18.22,23.51 -0.97,29.45 -3.96,1.24 -8.49,1.74 -14.25,1.55 -7.48,-0.25 -7.77,-1.79 -14.03,-1.6 -6.26,0.2 -5.79,2.14 -13.92,1.32 -18.32,-1.84 -20.15,0.67 -29.14,-0.68 -19.47,-2.92 -71.95,-0.64 -93.58,-0.67 -10.59,-0.01 -17.44,-1.65 -29.75,-1.62l-1101.36 1.56c-40.08,0 -86.18,-2.13 -125.51,0 -9.6,0.51 -17.8,1.57 -29.81,1.57 -19.61,-0.01 -81.33,2.89 -93.52,-0.61 -21.84,-6.27 -0.89,-29.42 4.11,-40.18 2.82,-6.1 3.27,-4.65 6.54,-9.15 5.26,-7.29 9.86,-20.65 16.1,-29.4l40.99 -70.4c2.69,-4.05 2.94,-5.77 5.87,-9.82 4.53,-6.27 2.91,-5.24 5.61,-11.66 2.54,-6.07 3.46,-4.22 6.21,-9.47 10.61,-20.21 13.04,-19.74 17.56,-29.51 2.74,-5.93 3.98,-5.21 6.4,-9.28 4.33,-7.33 4.95,-14.81 9.9,-21.48 2.46,-3.3 4.49,-5.36 6.58,-9.11 2.42,-4.31 2.39,-6.59 4.79,-10.9l18.24 -28.83c6.26,-6.78 2.53,-1.24 4.96,-10.73 2.31,-8.95 8.23,-12.22 12.57,-18.81 2.7,-4.1 1.88,-7.23 5.31,-11.94l14.55 -24.68c6.29,-10.1 6.83,-15.22 14.17,-25.04 4.41,-5.88 7.41,-14.53 10.82,-20.57 2.56,-4.56 4.12,-3.7 6.69,-8.99 4.24,-8.72 4.83,-11.89 11.71,-19.67 4.94,-5.59 6.54,-13.91 10.87,-20.51 4.36,-6.65 16.17,-31 23.38,-39.38 5.3,-6.17 2.04,-4.27 4.89,-10.79 2.36,-5.37 3.83,-4.15 6.45,-9.24l10.81 -20.58c2.79,-5.72 8.42,-11.08 11.92,-16.3 0.2,-0.28 0.44,-0.66 0.62,-0.96l2.85 -6.56c6.76,-14.36 15.37,-26.4 22.41,-40.36 0.83,-1.66 1.3,-3.48 2.36,-5.49 2.78,-5.29 0.72,-1.49 3.32,-4.52l12.07 -19.31c2.96,-6.61 3.94,-11.54 10.77,-14.32 -3.46,-8.09 11.8,-22.8 14.13,-23.54 0,-11.05 9.09,-18.61 15.01,-32.05 4.28,-9.72 10.97,-18.31 16.26,-27.67 1.72,-3.05 1.64,-4.08 3.57,-7.41 4.87,-8.43 13.27,-18.99 16.51,-27.42 3.87,-10.06 9.68,-13.75 12.73,-20.22 1.32,-2.8 1.49,-5.16 2.91,-8.07 2.15,-4.44 2.06,-2.82 4.5,-6.47 5.7,-8.54 6.24,-12.79 16.65,-27.29 3.98,-5.55 2.32,-9.23 6.41,-15.54l16.36 -27.56c11.94,-16.98 3.17,-16.9 19.3,-24.64 0.27,-12.05 4.7,-13.8 9.35,-22.03l17.53 -32.67c3.25,-7.71 4.89,-5.85 8.1,-12.3l28.39 -48.49c2.95,-3.31 3.17,-7.06 4.95,-10.74 1.65,-3.4 2.22,-2.71 4.24,-5.18 4.32,-5.3 2.68,-8.59 5.94,-14.45 4.96,-8.87 10.84,-16.02 15.15,-25.64 4.26,-9.5 10.84,-15.58 15.66,-25.14 5.5,-10.91 11.18,-23.81 19.37,-32.4 3.24,-3.39 4.13,-9.37 6.54,-13.85l37.88 -64.1c1.4,-2.41 1.75,-3.73 3.13,-6.28l20.07 -31.71c3.05,-4.73 3.33,-9.62 6.76,-13.63 4.86,-5.68 8.59,-18.9 18.41,-31.78l21.76 -39.43c1.98,-3.21 2.69,-3.15 4.54,-6.43 1.49,-2.64 1.56,-3.73 3.11,-6.31 1.71,-2.85 2.14,-2.68 4.31,-6.67l6.66 -9.03c2.71,-3.01 2.57,-6.27 5.32,-8.82 3.63,-3.39 11.9,-3.2 14.71,-1.5 4.07,2.46 8.9,9.69 9.02,9.83 3.6,4.77 3.33,8.29 7.83,14.13 3.29,4.29 6.55,7.08 8.72,11.67 2.84,6.01 1.69,8.19 6.06,14.34 12.66,17.79 10.55,20.99 14.33,26.46 2.09,3.05 2.97,3.11 4.7,6.28 1.73,3.17 1.11,3.33 2.61,6.8 3.22,7.4 -0.79,0.31 4.5,6.47l11.29 18.52c2.97,6.97 4.75,6.46 7.83,12.57l7.09 13.3zm-683.44 -932.51c2.7,4.38 1.28,4.19 3.09,7.89 1.77,3.58 2.69,3.23 4.97,6.01l83.35 144.13c1.69,2.94 2.8,3.99 4.56,6.42 4.67,6.41 2.84,9.88 7.28,16.26 4.8,6.9 10.64,11.31 12.77,20.16 1.72,7.13 -0.97,3.44 3.03,7.95 5.83,6.57 6.93,4.29 7.11,16.42 1.67,0.04 1.95,-0.98 5.86,3.46l18.24 30.51c5.46,10.78 13.71,27.19 20.98,37.07 5.33,7.26 11.89,22.07 14.09,25.14 8.69,12.07 2.71,3.54 6.08,14.32 2.65,8.43 3.46,3.07 8.47,10.35l13.01 21.51c1.1,1.72 0.57,0.92 1.68,3.02l18.07 32.12c4.55,9.7 9.99,10.66 8.06,18.63 5.93,1.99 4.52,0.85 7.09,7.1 6.94,16.83 5.25,7.7 8.78,16.23 1.82,4.38 0.55,4.4 3.89,8.67 3.5,4.45 2.4,0.32 5.16,7.39 6.04,15.49 2.45,5.61 9.64,15.46l40.83 72.13c2.23,4.02 2.75,2.7 5.07,7.46 1.63,3.33 1.6,5.76 3.46,9.1l21.62 34.86c1.17,2.76 -0.46,0.19 2.03,4.25 2.42,3.96 3.16,3.73 5.31,7.25 3.05,4.98 16.4,28.67 16.88,33.1 0.82,7.36 -5.18,11.03 -11.67,12.79 -5.56,1.5 -15.67,-0.74 -32.25,0.67 -5.17,0.44 -5.72,-0.61 -10.6,-1.04 -15.03,-1.33 -116.22,-0.95 -124.62,0.86 -22.64,4.88 -26.97,-11.05 -39.15,-31.67l-27.14 -48.17c-5.68,-7.08 -1.48,-8.76 -8.64,-16.46 -6.67,-7.18 -26.32,-45.89 -32.16,-54.14 -3.2,-4.55 -1.92,-3.19 -4.21,-8.34 -2.59,-5.81 -1.92,-3.26 -5.19,-7.37l-12.32 -23.76c-2.81,-4.33 -3.15,-1.35 -5.86,-8.27 -2.21,-5.67 0.31,-4.1 -3.58,-8.98 -5.74,-7.18 -1.48,0.86 -10.38,-14.73 -1.48,-2.59 -2.64,-5.86 -4.24,-8.31 -2.47,-3.78 -2.95,-2.3 -5.35,-7.21l-27.25 -48.06c-9.52,-15.37 -15.59,-30.61 -22.67,-40.08 -8.92,-11.96 -7.83,-14.56 -14.15,-23.5l-12.93 -24.73c-1.46,-3.27 -1.16,-2.27 -2.43,-3.84 -8.32,-10.33 -2.48,-4.2 -7.05,-11.78 -1.48,-2.47 -2.64,-3.43 -4.67,-6.31 -9.05,-12.84 -6.86,-13.37 -10.88,-20.5l-5.07 -7.47c-0.27,-0.52 -1.67,-4.17 -1.79,-4.49 -3.98,-10.41 -4.18,-7.86 -9.91,-15.19 -7.71,-9.85 -4.44,-10.51 -8.43,-16.66l-9.45 -15.66c-1.91,-3.53 -2.43,-4.69 -4.3,-8.25 -2.35,-4.47 -2.27,-3.11 -5.56,-6.99 -4.55,-5.39 -4.48,-11.37 -8.09,-17 -3,-4.66 -4.75,-4.38 -9.33,-14.21 -6.51,-13.96 -6.18,-10.33 -9.03,-16.07l-18.14 -32.07c-3.99,-9.44 -2.83,-1.95 -9.22,-15.88 -3.05,-6.66 -9.73,-11.68 -14.56,-23.09 -6.38,-15.04 -3.53,-6.2 -9.49,-15.61 -1.7,-2.68 -3.46,-5.34 -4.58,-7.97 -3.42,-7.94 -5.33,-12.99 -4.3,-19.23 -8.47,1.51 -3.11,2.61 -9.17,-9.67 -3.52,-7.13 -9.7,-10.14 -13.93,-20.59 -3.66,-9.09 -19.45,-33.81 -25.55,-45.05l-13.41 -22.67c-9.04,-13.74 -9.1,-18.65 -11.5,-23.03 -1.97,-3.59 -4.34,-3.93 -7.51,-9.74 -4.24,-7.74 -7.69,-14.94 -12.64,-21.88 -3.76,-5.27 -2.79,-6.02 -5.61,-11.64l-20.14 -33.21c-6.31,-9.14 -8.05,-14.54 -11.89,-22.62 -3.3,-6.98 -3.97,-1.43 -7.54,-11.28 -2.12,-5.83 0.57,-1.72 -2.78,-6.63 -6.12,-8.97 -6.23,-12.68 -8.29,-15.25l-15.06 -22.59c-1.5,-2.66 -0.14,-0.26 -1.77,-2.93l-4.25 -8.31c-4.17,-9.43 -9.1,-11.93 -13.33,-21.18 -2.89,-6.36 -0.9,-7.11 -5.04,-12.21 -8.05,-9.86 -5.63,-9.86 -12.94,-21.58 -3.14,-5.01 -2.43,-7.72 -4.73,-12.53 -10.5,2.45 -13.34,11.3 -17.98,19.68l-31.53 56.32c-5.15,7.44 -6.64,5.4 -10.32,14.78 -2.87,7.28 -7.8,8.48 -9.26,15.84 -1.8,9.03 -2.95,10.79 -8.27,16.83 -4.84,5.51 -6,9.86 -8.71,16.4 -2.02,4.87 -2.12,3.77 -4.91,7.65 -2.09,2.9 -2.93,4.58 -4.82,7.73l-18.39 31.81c-1.9,2.84 -3.24,4.98 -5.05,7.49l-14.11 23.55c-7.3,14.81 -6.89,10.59 -9.59,15.51 -2.08,3.78 -1.06,5.15 -3.03,9.52 -3.54,7.87 -10.17,14.56 -13.63,22.45 -2.67,6.06 -5.35,10.78 -8.98,16.14 -2.64,3.91 -2.51,2.86 -5.03,7.51l-7.31 9.94c-0.2,0.27 -0.47,0.64 -0.65,0.93 -0.77,1.28 -1.45,3.46 -1.82,4.46 -3.12,8.31 -6.01,7.87 -8.68,16.43 -2.45,7.87 -0.02,2.74 -4.41,8.14l-60.33 101.26c-4.18,7.89 -1.27,5.69 -10.48,20.91l-3.25 4.58c-0.2,0.27 -0.48,0.63 -0.68,0.9l-3.37 6.05c-1.43,2.89 -2.75,5.2 -4.35,8.19 -1.85,3.45 -2.06,5.2 -4.14,8.41 -2.41,3.71 -3.43,3.26 -5.54,7.02 -1.99,3.54 -1.43,4.7 -3.89,8.66l-16.84 31.8c-2.26,4.88 -7.78,9.88 -10.99,14.11 -2.38,3.14 -2.72,5.31 -4.24,8.32l-3.12 4.72c-4.12,5.77 -5.47,15 -9.13,20.68 -1.63,2.53 -3.39,5.39 -5,7.54 -3.19,4.27 -2.57,1.84 -5.17,7.39 -6.3,13.48 -5.03,11.55 -14.13,23.52l-12.79 23.29c-4.4,8.71 -12.62,17.89 -14.63,23.02 -1.85,4.73 -1.17,4.76 -3.86,8.7 -9.78,14.28 -17.83,35.32 -27.62,47.69l-8.67 16.44c-3.09,6.19 -0.07,2.5 -4.72,7.82 -3.94,4.52 -2.35,1.17 -5.02,7.52l-8.37 15.17c-10.23,14.41 -6.45,12.97 -13.74,23.9 -2.09,3.14 -2.73,4.77 -4.27,8.29l-41.14 71.82c-2.64,5.56 -6.09,9.42 -9.85,13.68 -5.35,6.08 -9.73,16.64 -13.11,24.54l-18.1 32.11c-2.49,4.49 -3.08,3.63 -5.14,7.4 -2.08,3.8 -1.28,4.77 -3.99,8.56 -3.73,5.21 -1.78,-0.56 -5.34,7.22 -1.63,3.56 -1.49,5.02 -3.97,8.57 -2.83,4.1 -3.11,2.85 -5.35,7.21 -3.26,6.33 -4.73,10.55 -8.77,16.32l-10.32 13.22c-33.99,0 -67.98,0 -101.97,0l-48.62 -0.01c-16.22,0.06 -32.17,2.36 -45.51,-4.69 0,-9.09 -1.4,-8.6 2.59,-14.66l12.99 -19.94c2.71,-4.59 2.84,-7.02 7.42,-9.34 -0.32,-5.34 0.28,-3.15 4.27,-8.77l28.99 -49.5c2.32,-5.5 0.89,-3.63 4.54,-8.01 5.63,-6.73 5.01,-9.86 9.48,-17.19l47.88 -83.91c4.1,-8.34 7.02,-9.08 10.54,-16.12 1.28,-2.55 2.34,-5.87 3.89,-8.67 1.59,-2.87 3.38,-4.57 5.21,-7.34 4.37,-6.59 3.73,-11.44 8.72,-17.96 5.18,-6.78 5.97,-6.25 9.69,-15.42l34.09 -58.46c2.07,-3.2 2.79,-3.57 4.81,-7.75l18.65 -33.11c5.83,-6.98 4.11,-11.13 8.74,-17.94 10.06,-14.73 10.95,-19.84 20.49,-32.84l85.98 -147.79c6.28,-12.71 11.99,-22.67 19.02,-34.32 2.14,-3.54 3.18,-5.65 4.98,-9.14l14.38 -23.27c2.33,-3.32 2.94,-5.26 4.99,-9.13 2.19,-4.17 2.47,-3.9 4.84,-7.72 4.03,-6.49 4.67,-10.85 9.42,-17.25 2.38,-3.21 4.05,-4.81 5.88,-8.23l18.13 -33.65c2.07,-4.2 2.7,-4 5.16,-7.4 4.02,-5.55 6,-11.16 9.48,-17.19 15.89,-27.61 37.2,-62.25 51.97,-90.8 2.3,-4.45 2.69,-3.11 5.34,-7.21 2.46,-3.8 2.2,-5.65 4.29,-9.83 3.82,-7.65 6.38,-6.14 14.52,-24.69 3.77,-8.58 6.29,-9.3 10.45,-16.22 5.58,-9.25 -1.3,-2.89 9.44,-15.67 4.55,-5.4 4.76,-11.97 8.78,-17.9 2.31,-3.4 2.79,-3.3 4.99,-7.54l14.34 -24.89c1.66,-3.08 2.07,-5.27 3.92,-8.64l29.44 -50.56c2,-3.02 3.5,-4.34 5.36,-7.21 2.68,-4.12 1.95,-3.89 4.03,-8.51 2.45,-5.42 2.08,-3.36 4.93,-7.61l28.4 -50.05c1.97,-3.63 2.46,-4.59 4.52,-8.06 3.24,-5.46 1.02,-4.25 5.43,-6.67 0.56,-7.51 5.31,-11.01 8.77,-16.76l68.29 -118.39c1.41,-3.18 1.95,-5.24 4.26,-8.3l9.14 -15.96c2.05,-3.83 2.53,-3.78 4.71,-7.83l31.25 -56.61c5.85,-13.26 8.89,-22.89 25.75,-22.89 2.06,3.09 2.82,4.7 4.67,7.87 0.98,1.68 1.09,1.98 2.53,3.75l19.92 30.29c1.78,3.6 1.02,3.82 3.36,7.62l45.87 79.65c9.48,11.55 13.68,24.96 20.76,35.73 10.28,15.67 4.38,9.23 8.25,15.27l1.42 1.72c0.29,0.35 1.25,1.25 1.54,1.6 1.41,1.68 0.02,-0.67 2.03,2.68 1.68,2.81 1.95,5 3.41,7.57 1.87,3.28 2.54,3.07 4.77,6.23l16.22 29.27c5.14,12.35 12.16,16.82 16.95,28.54l4.55 8.01c2.35,2.96 2.49,2.58 4.27,6.71 6.1,14.21 11.43,18.13 17.05,28.45l7.11 14.85c3.76,5.56 5.32,9.64 8.25,15.27 3.38,6.51 5.23,6.36 8.13,13.82 2.34,5.99 5.77,9.04 8.87,14.67l16.65 28.84c4.8,10.82 10.33,14.49 16.77,28.74l3.63 5.77c8.41,10.66 9.14,21.48 16.23,30.84l13.61 20.91c5.47,7.06 3.93,6.39 7.52,14.43 3.82,8.52 0.91,1.74 5.13,7.43 2.24,3.03 2.51,4.44 3.66,7.33l33.26 57.73c7.83,12.55 3.98,10.49 12.72,21.79 4.76,6.14 7.81,14.32 11.8,21.15l12.85 21.67c6.96,9.58 22.07,41.65 28.93,51.07l7.62 14.36c2.2,4.59 2.82,3.08 5.36,7.18zm-926.68 912.57c2.88,5.52 4.07,2.54 6.62,9.06 3.52,9.04 -2.2,3.19 6.66,12.17 5.12,5.18 7.54,11.19 10.88,17.36l18.08 30.55c7.46,11.06 14.66,27.33 16.61,30.45 3.3,5.27 3.2,2.65 5.79,9.9 4.57,12.78 2.56,3.95 8.97,14.56l31.83 54.47c4.12,11.37 6.8,10.83 8.42,15.11 2.18,5.83 3.8,-1.49 0.8,7.04 5.7,0.08 1.82,-4.69 6.21,3.2 0.66,1.18 1.11,4.86 1.46,6.38 1.56,6.71 -0.83,2 3.04,6.38 5.59,6.34 4.64,10.23 9.27,15.83 7.02,8.46 15.5,21.32 20.13,31.63l17.99 32.22c2.16,3.88 4.21,4.84 7.33,9.93 4.29,7.01 6.75,16.72 11.83,22.69 4.73,5.58 3.16,4.17 5.18,12.08 2.66,10.49 8.71,8.54 13.91,20.61 2.77,6.4 2.37,5.02 6.02,9.68 4.14,5.27 2.66,5.83 5.42,11.83 3.56,7.73 10.48,13.28 13.49,21.02 1.35,3.46 0.73,3.97 2.06,7.36 2.65,6.77 -0.28,0.95 3.13,4.71l19.44 32.33c4.62,10.14 6.88,11.26 12.83,20.12 3.3,4.94 2.53,7.27 5.2,12.05 2.64,4.73 4.29,4.05 7.08,10.18l9.13 17.55c2.1,3.78 0.62,1.37 2.97,4.86 3.1,4.6 3.56,5.78 6,11.26 3.29,7.39 3.77,4.98 6.89,10.37l61.7 107.75c3.16,4.47 3.63,6.29 6.55,10.72 3.27,4.96 3.82,4.18 6.49,10.76 2.75,6.73 2.92,5.89 5.89,11.37 2.58,4.81 2.51,7.62 5.49,11.78 2.14,3 5.19,6.06 7.71,9.54 7.25,10 10.53,22.83 18.03,32.18l12.41 22.1c3.26,7.63 9.39,13.54 13.39,21.12l11.62 22.89c2.71,7.27 9.02,12.92 13.33,19.62l4.09 10.05c0.15,0.31 0.39,0.7 0.57,0.99l7.52 11.31c8.85,18.15 13.61,20.04 18.26,31.94 7.14,18.21 5.84,12.5 15.71,17.24 1.67,-7.17 2.66,-10.22 6.13,-15.83l7.75 -14.21c5.88,-8.34 9.78,-18.86 15.03,-27.33l24.73 -41.16c1.89,-4.12 4.71,-9.06 7.52,-12.88 8.12,-11.02 5.31,-11.12 12.67,-20.27 4.51,-5.59 8.17,-15.56 11.16,-21.8 2.49,-5.21 4.7,-4.93 8.02,-12.37l11.88 -21.07c6.11,-8.66 14.18,-27.56 19.01,-34.33 1.81,-2.54 2.84,-3.61 4.92,-6.05 0.22,-0.25 0.55,-0.58 0.75,-0.82l2.02 -2.69c2.44,-4.24 1.82,-6.86 4.62,-11.08l27.29 -48.01c6.34,-8.06 10.33,-19.86 16.44,-27.5 4.36,-5.46 3.94,-7.87 6.81,-13.58 2.42,-4.8 7.68,-8.22 10.11,-11.86 3.28,-4.9 1.68,-10.12 5.97,-16 2.41,-3.28 2.29,-1.65 4.82,-6.17 3.52,-6.27 6.28,-14.83 10.68,-20.69l7.85 -14.11c3.72,-6.29 1.37,-0.64 5.25,-5.74l19.08 -34.24c2.35,-4.05 2.45,-3.12 4.51,-6.48 2.09,-3.42 1.85,-4.48 3.68,-7.3l8.07 -13.89c3.72,-6.54 5.03,-6.61 7.56,-14.41 3.23,-10.02 11.73,-17.07 15.71,-26.66 1.6,-3.86 1.24,-4.1 3.52,-7.46 0.19,-0.27 0.48,-0.62 0.68,-0.89 0.2,-0.27 0.49,-0.62 0.69,-0.87 11.76,-15.93 18.52,-37.07 31.03,-52.11 3.15,-3.78 2.23,-1.28 4.45,-6.55 3.93,-9.36 4.51,-7.59 7.81,-14.14l14.63 -27.74c3.72,-4.42 21.48,-39.74 28.65,-48.23l7.57 -12.83c2.08,-4.85 2.22,-3.49 4.52,-6.46l3.8 -7.18c2.82,-6.84 5.49,-7.78 7.77,-14.19 5.42,-15.17 36.28,-63.55 47.01,-81.64 1.21,-2.05 2.73,-5.92 3.71,-7.28 3.5,-4.89 2.3,-0.35 5.54,-5.43 2.34,-3.65 0.95,-3.73 2.4,-8.59 1.98,-6.67 4.79,-6.72 7.54,-12.85 4.25,-9.47 12.55,-19.21 16.08,-26.28l7.86 -14.1c2.98,-4.86 4.64,-7.81 7.27,-13.13 3.08,-6.25 5.19,-8.23 8.27,-13.7 3.86,-6.83 6.16,-15.26 11.43,-21.52 9.84,-11.7 4.96,-8.81 12.35,-19.02 4.1,-5.66 2.09,-8.92 11.06,-21.88 7.7,-11.14 6.62,-13.05 11.34,-21.59l16.72 -25.66c10.8,-10.09 43.85,-5.77 58.54,-5.77 42.98,0 87.4,-1.73 130.28,-0.06 21.47,0.83 15.52,19.91 6.2,31.41l-44.81 74.43c-3.47,5.49 -2.92,9.79 -6.67,15.3l-12.08 19.3c-2.08,3.57 -2.69,2.95 -4.79,6.19 -3.13,4.83 -3,8.47 -6.69,13.71 -6.08,8.59 -10.11,17.26 -15.43,26.94 -7.69,13.98 -10.97,13.71 -20.61,34.3 -5.68,12.13 -13.55,22.05 -19.11,34.22 -5.1,11.15 -11.72,15.24 -16.25,27.68l-15.61 26.75c-2.67,4.42 -1.92,2.87 -4.61,6.37l-38.91 69.34c-2.11,3.47 -2.48,2.92 -4.35,6.63 -1.51,3.01 -1.76,4.8 -3.45,7.53 -2.03,3.28 -2.05,2.36 -4.26,5.15 -4.58,5.77 -2.98,9.11 -6.71,15.25 -4.92,8.14 -9.19,11.23 -12.71,20.24 -2.95,7.57 -5.12,5.77 -8.37,13.6 -3.78,9.1 -10.84,16.22 -14.04,23.61 -1.87,4.34 -1.68,7.17 -4.55,11.14 -9.14,12.61 -10.43,18.22 -15.88,26.48l-7.92 14.04c-2.92,8.29 -4.2,7.41 -9.11,12.87l-14.83 27.52c-4.85,9.85 -20.46,32.38 -23.78,40.54 -4.92,12.11 -2.78,11.34 -9.59,10.8 2.35,9.78 -0.39,7.63 -4.64,14.19 -2.2,3.4 -3.73,7.35 -6.03,11.23 -1.24,2.06 -2.36,4.13 -3.52,5.89 -2.03,3.09 -2.04,2.45 -4.2,5.21 -4.08,5.2 -2.56,6.97 -5.92,11.34 -3.99,5.2 -1.35,-0.63 -4.59,4.82 -3.66,6.13 1.34,5.93 -8.08,18.6 -12.09,16.29 -8.45,14.9 -13.29,22.79 -1.68,2.74 -2.14,2.57 -3.83,5.59 -1.17,2.13 -1.68,4.07 -2.89,6.52 -2.42,4.84 -4.46,5.83 -7.04,10.22 -7.43,12.6 -10.05,21.98 -20.24,34.67l-50.78 88.87c-0.17,0.3 -0.4,0.69 -0.58,0.99l-8.47 11.92c-4.27,9.07 1.25,2.5 -6.63,12.2 -3.99,4.91 -2.52,6.25 -5.27,12l-16.38 29.12c-2.23,4.72 -0.71,1.87 -3.73,5.68l-10.08 16.59c-1.61,2.91 -1.68,3.56 -3.47,5.95 -5.58,7.42 -2.4,1.55 -6.05,11.2 -2.5,6.59 -3.99,6.07 -7.21,11.62l-6.49 10.77c-1.42,2.61 -1.16,3.64 -3.08,6.34 -2.65,3.72 -3.63,3.07 -4.9,4.51 -3.89,4.42 -1.08,-0.44 -2.75,6.66 -3.67,15.62 -2.71,3.47 -9.02,17.66l-38.32 65.22c-0.37,0.56 -1.47,2.56 -1.67,3.05 -9.22,21.83 -1.44,5.55 -13.56,22.52 -3.26,4.58 -2.56,7.42 -5.54,11.72 -5.26,7.63 -4.87,0.11 -6.99,11.84 -2.59,14.31 -8.62,12.93 -13.84,22.24 -2.19,3.9 -2.56,8.44 -4.8,12.46l-11.16 17.09c-1.12,2.19 -1.28,3.13 -2.45,5.38l-21.49 33.42c-3.67,4.88 -1.9,6.51 -5.05,12.21 -4.11,7.42 -3.09,0.58 -7.22,11.61 -2.98,8.01 -2.91,4.4 -6.83,10.42 -4.84,7.4 -0.24,7.6 -12.88,23.21 -4.16,5.16 -3.73,6.63 -6.57,12.27l-27.6 44.57c-2.98,4.86 -4.33,6.38 -6.95,10.3 -9.96,0 -17.34,-0.79 -22.28,-16.94l-149.3 -257.05c-2.32,-4.59 -3.4,-8.52 -6.14,-12.68 -3.33,-5.06 -4.92,-6.39 -7.95,-12.44l-27.47 -49.41c-2.64,-5.58 -18.84,-26.49 -20.62,-37.14 -4.12,-1.92 -15.74,-24.5 -18.35,-30.58 -1.92,-4.47 -3.24,-5.99 -5.83,-9.86 -3.07,-4.58 -3.52,-6.29 -6.13,-11.13l-53.86 -92.04c-1.36,-2.51 -1.25,-2.7 -2.81,-5.02 -4.29,-6.36 -7.57,-8.28 -5.59,-16.39 -8.06,-3.28 -11.69,-13.56 -20.71,-27.91l-62.38 -108.64c-1.53,-2.41 -2.12,-4.15 -3.86,-7.11 -11.66,-19.86 -17.95,-28.48 -29.45,-50.57l-54.32 -93.16c-3.1,-5.21 -4.34,-10.22 -7.81,-15.73 -2.96,-4.71 -6.06,-8.27 -8.7,-13.26 -5.08,-9.59 0.65,-3.72 -8.44,-15.1l-57.42 -101.03c-3,-6.14 -6.84,-8.91 -9.39,-14.14 -3.55,-7.29 -1.43,-8.36 -6.98,-15l-34.23 -58.32c-4.1,-10.13 -4.71,-6.97 -9.06,-14.48 -1.56,-2.71 -2.13,-4.55 -3.67,-7.31l-12.57 -21.94c-4.79,-8.84 -0.54,-4.91 -7.83,-14.13l-58.54 -101.48c-6.74,-13.69 -27.49,-44.08 -33.99,-57.01 -7.51,-14.97 -32.58,-51.18 -32.15,-59.15 0.25,-4.54 -1.05,-6.7 14.42,-7.73 30.7,-2.05 142.18,-0.05 181.93,-0.05 3.73,5.55 2.97,5.02 7.85,9.41 5.32,4.77 2.75,3.81 6.13,9.56l12.21 19.16c2.08,3.85 2.92,7.21 5.02,10.67l23.5 39.26c8.86,12.53 3.14,9.69 9.59,18.64 5.86,8.12 3.14,6.89 6.17,12.67z"/>
   <path class="fil1" d="M5807.33 2139.34c-130.61,0 -251.82,-22.04 -363.65,-66.11 -111.83,-44.08 -208.57,-105.71 -290.19,-184.89 -81.63,-79.18 -145.3,-171.83 -191.01,-277.94 -45.72,-106.12 -68.57,-222.03 -68.57,-347.74 0,-125.71 22.85,-241.63 68.57,-347.74 45.71,-106.12 109.37,-198.77 191.01,-277.95 81.62,-79.17 177.95,-140.81 288.97,-184.88 111.01,-44.08 232.64,-66.12 364.88,-66.12 130.61,0 251.02,21.64 361.21,64.9 110.2,43.26 206.52,104.48 288.97,183.67 82.44,79.17 146.11,171.82 191.01,277.94 44.9,106.12 67.35,222.84 67.35,350.19 0,127.33 -22.45,244.07 -67.35,350.19 -44.9,106.11 -108.57,198.76 -191.01,277.94 -82.45,79.18 -178.77,140.4 -288.97,183.67 -110.2,43.26 -230.6,64.89 -361.21,64.89zm0 -217.94c94.7,0 182.44,-16.32 263.25,-48.97 80.81,-32.66 151.02,-78.77 210.61,-138.37 59.59,-59.59 106.11,-129.37 139.58,-209.37 33.46,-80 50.2,-167.34 50.2,-262.03 0,-94.7 -16.74,-182.03 -50.2,-262.03 -33.47,-80 -80,-149.79 -139.58,-209.38 -59.59,-59.59 -129.79,-105.71 -210.61,-138.36 -80.81,-32.65 -168.56,-48.97 -263.25,-48.97 -96.32,0 -184.88,16.32 -265.7,48.97 -80.81,32.65 -151.42,78.77 -211.82,138.36 -60.41,59.59 -107.35,129.38 -140.81,209.38 -33.47,80 -50.21,167.33 -50.21,262.03 0,94.69 16.74,182.03 50.21,262.03 33.46,80 80.4,149.78 140.81,209.37 60.4,59.6 131.01,105.71 211.82,138.37 80.82,32.65 169.38,48.97 265.7,48.97z"/>
   <path id="_1" class="fil1" d="M6980.67 2609.52c-53.87,0 -105.71,-6.53 -155.51,-19.59 -49.79,-13.06 -91.82,-32.66 -126.11,-58.77l75.91 -181.22c48.97,40.81 112.65,61.22 191.02,61.22 62.04,0 109.79,-19.19 143.26,-57.55 33.46,-38.36 50.2,-95.1 50.2,-170.19l0 -1361.57 235.09 0 0 1356.67c0,132.23 -35.51,237.13 -106.53,314.68 -71.01,77.55 -173.46,116.32 -307.33,116.32zm296.32 -2037.45c-45.71,0 -83.67,-14.7 -113.87,-44.08 -30.21,-29.39 -45.31,-65.3 -45.31,-107.75 0,-44.07 15.1,-80.81 45.31,-110.2 30.2,-29.39 68.16,-44.08 113.87,-44.08 45.71,0 83.67,14.29 113.87,42.86 30.2,28.57 45.3,64.07 45.3,106.52 0,44.08 -14.69,81.22 -44.07,111.42 -29.39,30.21 -67.76,45.31 -115.1,45.31z"/>
   <path id="_2" class="fil1" d="M8293.58 2134.44c-130.61,0 -246.52,-28.56 -347.74,-85.71 -101.22,-57.14 -181.22,-135.91 -239.99,-236.31 -58.77,-100.41 -88.16,-214.28 -88.16,-341.61 0,-128.98 29.39,-243.25 88.16,-342.85 58.77,-99.58 138.77,-177.53 239.99,-233.86 101.22,-56.33 217.13,-84.5 347.74,-84.5 128.97,0 244.48,28.16 346.51,84.5 102.03,56.32 182.03,133.87 239.99,232.63 57.95,98.77 86.93,213.47 86.93,344.07 0,128.97 -28.99,243.24 -86.93,342.84 -57.96,99.58 -137.96,177.95 -239.99,235.08 -102.03,57.15 -217.54,85.71 -346.51,85.71zm0 -205.7c83.26,0 157.95,-18.77 224.07,-56.32 66.12,-37.55 117.96,-91.02 155.51,-160.41 37.55,-69.39 56.32,-149.78 56.32,-241.21 0,-93.06 -18.77,-173.47 -56.32,-241.22 -37.55,-67.75 -89.38,-120.41 -155.51,-157.96 -66.12,-37.55 -140.81,-56.32 -224.07,-56.32 -83.26,0 -157.54,18.77 -222.84,56.32 -65.31,37.55 -117.55,90.21 -156.73,157.96 -39.18,67.75 -58.77,148.16 -58.77,241.22 0,91.42 19.6,171.82 58.77,241.21 39.19,69.39 91.42,122.86 156.73,160.41 65.3,37.55 139.58,56.32 222.84,56.32z"/>
   <path id="_3" class="fil1" d="M9753.43 2134.44c-132.24,0 -250.19,-28.56 -353.86,-85.71 -103.67,-57.14 -184.89,-135.5 -243.67,-235.08 -58.77,-99.6 -88.16,-213.87 -88.16,-342.84 0,-128.98 29.39,-243.25 88.16,-342.85 58.77,-99.58 140,-177.53 243.67,-233.86 103.67,-56.33 221.62,-84.5 353.86,-84.5 117.55,0 222.43,23.27 314.68,69.8 92.24,46.52 163.66,115.51 214.27,206.93l-178.77 115.1c-42.44,-63.67 -94.27,-110.61 -155.5,-140.81 -61.22,-30.21 -126.93,-45.31 -197.13,-45.31 -84.9,0 -160.81,18.77 -227.74,56.32 -66.94,37.55 -120,90.21 -159.18,157.96 -39.18,67.75 -58.77,148.16 -58.77,241.22 0,93.05 19.6,173.86 58.77,242.43 39.19,68.57 92.25,121.63 159.18,159.18 66.94,37.55 142.85,56.32 227.74,56.32 70.2,0 135.91,-15.11 197.13,-45.31 61.22,-30.2 113.06,-77.14 155.5,-140.81l178.77 112.65c-50.61,89.8 -122.03,158.77 -214.27,206.93 -92.25,48.16 -197.13,72.24 -314.68,72.24z"/>
   <path id="_4" class="fil1" d="M11156.94 809.61c106.12,0 199.58,20.41 280.39,61.22 80.82,40.82 144.08,102.86 189.79,186.12 45.71,83.26 68.57,188.56 68.57,315.9l0 746.9 -235.09 0 0 -719.96c0,-125.71 -30.61,-220.39 -91.83,-284.07 -61.22,-63.67 -147.34,-95.51 -258.35,-95.51 -83.26,0 -155.91,16.32 -217.95,48.97 -62.04,32.66 -109.79,80.82 -143.26,144.48 -33.46,63.67 -50.2,142.86 -50.2,237.54l0 668.54 -235.09 0 0 -1817.06 235.09 0 0 869.35 -46.52 -93.06c42.45,-84.9 107.75,-151.01 195.91,-198.36 88.16,-47.35 191.01,-71.02 308.55,-71.02z"/>
   <path id="_5" class="fil1" d="M12604.54 2134.44c-138.77,0 -260.8,-28.56 -366.1,-85.71 -105.3,-57.14 -186.93,-135.5 -244.89,-235.08 -57.95,-99.6 -86.93,-213.87 -86.93,-342.84 0,-128.98 28.16,-243.25 84.48,-342.85 56.33,-99.58 133.88,-177.53 232.64,-233.86 98.77,-56.33 210.19,-84.5 334.28,-84.5 125.71,0 236.72,27.76 333.04,83.27 96.32,55.5 171.83,133.46 226.52,233.86 54.7,100.41 82.05,217.54 82.05,351.41 0,9.8 -0.41,21.22 -1.22,34.29 -0.82,13.06 -2.05,25.31 -3.67,36.74l-1104.44 0 0 -168.97 981.99 0 -95.51 58.77c1.64,-83.26 -15.51,-157.54 -51.42,-222.85 -35.91,-65.3 -85.3,-116.32 -148.16,-153.05 -62.85,-36.74 -135.91,-55.1 -219.17,-55.1 -81.63,0 -154.28,18.36 -217.95,55.1 -63.66,36.73 -113.46,88.16 -149.37,154.27 -35.92,66.12 -53.88,141.63 -53.88,226.52l0 39.19c0,86.52 20,163.67 60,231.42 40,67.75 95.92,120.41 167.76,157.96 71.82,37.55 154.27,56.32 247.33,56.32 76.73,0 146.52,-13.06 209.38,-39.19 62.85,-26.12 117.95,-65.3 165.3,-117.55l129.78 151.83c-58.77,68.56 -131.82,120.81 -219.17,156.72 -87.35,35.92 -184.89,53.87 -292.64,53.87z"/>
   <path id="_6" class="fil1" d="M13988.47 2609.52c-119.18,0 -234.69,-16.74 -346.51,-50.2 -111.83,-33.47 -202.85,-81.22 -273.05,-143.26l112.65 -181.22c60.41,52.25 134.68,93.46 222.84,123.67 88.16,30.2 180.41,45.3 276.73,45.3 153.46,0 266.11,-35.91 337.94,-107.75 71.83,-71.83 107.75,-181.22 107.75,-328.15l0 -274.27 24.49 -257.13 -12.24 -259.58 0 -355.09 222.84 0 0 1121.58c0,228.57 -57.14,396.71 -171.42,504.47 -114.28,107.75 -281.62,161.62 -502.01,161.62zm-29.39 -543.65c-125.71,0 -237.95,-26.54 -336.73,-79.59 -98.77,-53.06 -177.13,-126.93 -235.09,-221.63 -57.95,-94.69 -86.93,-204.07 -86.93,-328.14 0,-125.71 28.99,-235.5 86.93,-329.38 57.96,-93.87 136.32,-166.93 235.09,-219.17 98.77,-52.25 211.02,-78.37 336.73,-78.37 111.01,0 212.23,22.45 303.65,67.35 91.42,44.9 164.48,113.87 219.17,206.93 54.7,93.06 82.05,210.61 82.05,352.64 0,140.4 -27.35,257.13 -82.05,350.19 -54.69,93.05 -127.75,162.85 -219.17,209.37 -91.42,46.53 -192.64,69.8 -303.65,69.8zm26.94 -205.71c86.52,0 163.26,-17.96 230.19,-53.87 66.94,-35.92 119.58,-85.71 157.95,-149.38 38.36,-63.67 57.55,-137.13 57.55,-220.39 0,-83.26 -19.19,-156.73 -57.55,-220.4 -38.36,-63.66 -91.01,-113.05 -157.95,-148.15 -66.94,-35.11 -143.67,-52.66 -230.19,-52.66 -86.53,0 -163.67,17.55 -231.42,52.66 -67.76,35.1 -120.81,84.48 -159.18,148.15 -38.36,63.67 -57.55,137.14 -57.55,220.4 0,83.26 19.19,156.72 57.55,220.39 38.37,63.67 91.42,113.46 159.18,149.38 67.75,35.91 144.88,53.87 231.42,53.87z"/>
   <path id="_7" class="fil1" d="M15693.19 2134.44c-111.01,0 -211.01,-24.89 -299.98,-74.69 -88.97,-49.8 -159.18,-123.67 -210.61,-221.62 -51.42,-97.96 -77.14,-220.4 -77.14,-367.33 0,-146.93 26.53,-269.38 79.59,-367.34 53.06,-97.95 124.07,-171.42 213.05,-220.39 88.97,-48.97 187.33,-73.47 295.08,-73.47 127.35,0 239.99,27.76 337.95,83.27 97.95,55.5 175.5,132.65 232.64,231.42 57.14,98.76 85.71,214.27 85.71,346.51 0,132.23 -28.57,248.14 -85.71,347.73 -57.15,99.6 -134.69,177.14 -232.64,232.64 -97.96,55.51 -210.61,83.26 -337.95,83.26zm-688.13 -14.69l0 -1817.06 235.09 0 0 864.45 -24.49 301.21 14.69 301.2 0 350.19 -225.29 0zm668.54 -191.01c83.26,0 157.96,-18.77 224.07,-56.32 66.12,-37.55 118.37,-91.02 156.73,-160.41 38.36,-69.39 57.55,-149.78 57.55,-241.21 0,-93.06 -19.19,-173.47 -57.55,-241.22 -38.36,-67.75 -90.61,-120.41 -156.73,-157.96 -66.11,-37.55 -140.81,-56.32 -224.07,-56.32 -81.62,0 -155.51,18.77 -221.62,56.32 -66.12,37.55 -118.36,90.21 -156.73,157.96 -38.36,67.75 -57.55,148.16 -57.55,241.22 0,91.42 19.19,171.82 57.55,241.21 38.37,69.39 90.61,122.86 156.73,160.41 66.11,37.55 140,56.32 221.62,56.32z"/>
   <path id="_8" class="fil1" d="M17148.14 2134.44c-138.77,0 -260.8,-28.56 -366.1,-85.71 -105.3,-57.14 -186.93,-135.5 -244.89,-235.08 -57.95,-99.6 -86.93,-213.87 -86.93,-342.84 0,-128.98 28.16,-243.25 84.48,-342.85 56.33,-99.58 133.88,-177.53 232.64,-233.86 98.77,-56.33 210.19,-84.5 334.28,-84.5 125.71,0 236.72,27.76 333.04,83.27 96.32,55.5 171.83,133.46 226.52,233.86 54.7,100.41 82.05,217.54 82.05,351.41 0,9.8 -0.41,21.22 -1.22,34.29 -0.82,13.06 -2.05,25.31 -3.67,36.74l-1104.44 0 0 -168.97 981.99 0 -95.51 58.77c1.64,-83.26 -15.51,-157.54 -51.42,-222.85 -35.91,-65.3 -85.3,-116.32 -148.16,-153.05 -62.85,-36.74 -135.91,-55.1 -219.17,-55.1 -81.63,0 -154.28,18.36 -217.95,55.1 -63.66,36.73 -113.46,88.16 -149.37,154.27 -35.92,66.12 -53.88,141.63 -53.88,226.52l0 39.19c0,86.52 20,163.67 60,231.42 40,67.75 95.92,120.41 167.76,157.96 71.82,37.55 154.27,56.32 247.33,56.32 76.73,0 146.52,-13.06 209.38,-39.19 62.85,-26.12 117.95,-65.3 165.3,-117.55l129.78 151.83c-58.77,68.56 -131.82,120.81 -219.17,156.72 -87.35,35.92 -184.89,53.87 -292.64,53.87z"/>
  </g>
 </g>
</svg>
