<svg xmlns="http://www.w3.org/2000/svg" xmlns:xlink="http://www.w3.org/1999/xlink" viewBox="0 0 28 28"><g><path d="M 0 0 L 28 0 L 28 28 L 0 28 Z" fill="transparent"></path><path d="M 21 7.113 C 21 7.041 21.029 6.971 21.079 6.921 L 27.534 0.465 C 27.613 0.388 27.73 0.365 27.831 0.407 C 27.933 0.449 28 0.548 28 0.658 L 28 13.888 C 28 13.96 27.971 14.028 27.921 14.079 L 21 21 Z M 7 21 L 7 7.658 C 7 7.548 6.933 7.449 6.831 7.407 C 6.73 7.365 6.613 7.388 6.534 7.465 L 0.079 13.921 C 0.028 13.972 0 14.041 0 14.113 L 0 27.728 C 0 27.877 0.122 28 0.273 28 L 13.888 28 C 13.96 28 14.028 27.971 14.079 27.921 L 21 21 Z" fill="rgb(153, 102, 255)"></path></g></svg>